<svg xmlns="http://www.w3.org/2000/svg" xmlns:svgjs="http://svgjs.com/svgjs" xmlns:xlink="http://www.w3.org/1999/xlink" id="freepik_stories-kanban-method" class="animated" version="1.1" viewBox="0 0 500 500"><style>@keyframes wind{0%{transform:rotate(0deg)}25%{transform:rotate(1deg)}75%{transform:rotate(-1deg)}}@keyframes floating{0%{opacity:1;transform:translateY(0)}50%{transform:translateY(-10px)}}@keyframes heartbeat{0%,30%,40%,60%{transform:scale(1)}10%,50%{transform:scale(1.1)}}svg#freepik_stories-kanban-method:not(.animated) .animable{opacity:0}svg#freepik_stories-kanban-method.animated #freepik--background-simple--inject-559{animation:6s Infinite linear wind;animation-delay:0s}svg#freepik_stories-kanban-method.animated #freepik--Graphics--inject-559{animation:6s Infinite linear floating;animation-delay:0s}svg#freepik_stories-kanban-method.animated #freepik--Clock--inject-559{animation:6s Infinite linear spin;animation-delay:0s}svg#freepik_stories-kanban-method.animated #freepik--Plants--inject-559{animation:6s Infinite linear wind;animation-delay:0s}svg#freepik_stories-kanban-method.animated #freepik--speech-bubble--inject-559{animation:3s Infinite linear heartbeat;animation-delay:0s}svg#freepik_stories-kanban-method.animated #freepik--character-2--inject-559{animation:3s Infinite linear wind;animation-delay:0s}svg#freepik_stories-kanban-method.animated #freepik--character-1--inject-559{animation:6s Infinite linear wind;animation-delay:0s}</style><g id="freepik--background-simple--inject-559" class="animable" style="transform-origin:251.148px 249.78px"><path d="M465.74,377.39c27.81-59.69,29.68-139.22,10.48-203A212.44,212.44,0,0,0,380.43,52.7c-49.3-28.93-108.06-37.54-161-19.28-13.92,4.8-27.47,9.2-40.59,17.09-53.78,32.34-43.4,112-62.27,139.76-15.88,23.32-46.24,16.45-65.38,34.32C-.4,272.82-.53,394.73,59.06,432.83,122.28,473.26,396.86,525.24,465.74,377.39Z" style="fill:#0f8;transform-origin:251.148px 249.78px" id="elzwcdu76k5eh" class="animable"/><g id="elw0c5h83wddh"><path d="M465.74,377.39c27.81-59.69,29.68-139.22,10.48-203A212.44,212.44,0,0,0,380.43,52.7c-49.3-28.93-108.06-37.54-161-19.28-13.92,4.8-27.47,9.2-40.59,17.09-53.78,32.34-43.4,112-62.27,139.76-15.88,23.32-46.24,16.45-65.38,34.32C-.4,272.82-.53,394.73,59.06,432.83,122.28,473.26,396.86,525.24,465.74,377.39Z" style="fill:#fff;opacity:.8;transform-origin:251.148px 249.78px" class="animable"/></g></g><g id="freepik--Floor--inject-559" class="animable" style="transform-origin:250.005px 445.82px"><line id="eld1wk4eyrma" x1="7.29" x2="492.72" y1="445.82" y2="445.82" style="fill:none;stroke:#263238;stroke-linecap:round;stroke-linejoin:round;transform-origin:250.005px 445.82px" class="animable"/></g><g id="freepik--Graphics--inject-559" class="animable" style="transform-origin:253.828px 218.732px"><g id="el1cn2n4wbt4q"><rect width="14.91" height="14.91" x="349.86" y="32.5" style="fill:none;stroke:#263238;stroke-linecap:round;stroke-linejoin:round;transform-origin:357.315px 39.955px;transform:rotate(-45deg)" class="animable"/></g><g id="eljj7wovd8xt"><rect width="14.91" height="14.91" x="447.56" y="112.35" style="fill:none;stroke:#263238;stroke-linecap:round;stroke-linejoin:round;transform-origin:455.015px 119.805px;transform:rotate(-45deg)" class="animable"/></g><g id="elek308vngu7b"><rect width="14.91" height="14.91" x="107.09" y="43.35" style="fill:none;stroke:#263238;stroke-linecap:round;stroke-linejoin:round;transform-origin:114.545px 50.805px;transform:rotate(-45deg)" class="animable"/></g><g id="elba3wyvcz5yq"><rect width="14.91" height="14.91" x="282.54" y="388.65" style="fill:none;stroke:#263238;stroke-linecap:round;stroke-linejoin:round;transform-origin:289.995px 396.105px;transform:rotate(-45deg)" class="animable"/></g><g id="el7wdx3w8tziw"><rect width="14.91" height="14.91" x="299.91" y="371.27" style="fill:none;stroke:#263238;stroke-linecap:round;stroke-linejoin:round;transform-origin:307.365px 378.725px;transform:rotate(-45deg)" class="animable"/></g><g id="elw5zt6m22ixh"><rect width="9.47" height="9.47" x="330.55" y="53.18" style="fill:none;stroke:#263238;stroke-linecap:round;stroke-linejoin:round;transform-origin:335.285px 57.915px;transform:rotate(-45deg)" class="animable"/></g><g id="elsqcfjmcqfvd"><rect width="9.47" height="9.47" x="44.06" y="335.74" style="fill:none;stroke:#263238;stroke-linecap:round;stroke-linejoin:round;transform-origin:48.795px 340.475px;transform:rotate(-45deg)" class="animable"/></g><g id="eleb88dukiy1k"><rect width="9.47" height="9.47" x="406.56" y="396.62" style="fill:none;stroke:#263238;stroke-linecap:round;stroke-linejoin:round;transform-origin:411.295px 401.355px;transform:rotate(-45deg)" class="animable"/></g></g><g id="freepik--Calendar--inject-559" class="animable" style="transform-origin:430.28px 293.37px"><rect id="elguz0030i3zq" width="62.36" height="54.68" x="399.1" y="266.03" class="animable" rx="4" style="fill:none;stroke:#263238;stroke-miterlimit:10;transform-origin:430.28px 293.37px"/><rect id="elpxmpg43lftq" width="5.4" height="5.4" x="402.67" y="282.71" style="fill:none;stroke:#263238;stroke-miterlimit:10;transform-origin:405.37px 285.41px" class="animable"/><rect id="elsjur1p6pa1" width="5.4" height="5.4" x="412.64" y="282.71" style="fill:none;stroke:#263238;stroke-miterlimit:10;transform-origin:415.34px 285.41px" class="animable"/><rect id="el2mx9fgdl0st" width="5.4" height="5.4" x="422.6" y="282.71" style="fill:none;stroke:#263238;stroke-miterlimit:10;transform-origin:425.3px 285.41px" class="animable"/><rect id="elpehttuki67" width="5.4" height="5.4" x="432.57" y="282.71" style="fill:none;stroke:#263238;stroke-miterlimit:10;transform-origin:435.27px 285.41px" class="animable"/><rect id="el6ekaqbexlwv" width="5.4" height="5.4" x="442.54" y="282.71" style="fill:none;stroke:#263238;stroke-miterlimit:10;transform-origin:445.24px 285.41px" class="animable"/><rect id="elf6n8mxlu28d" width="5.4" height="5.4" x="452.51" y="282.71" style="fill:none;stroke:#263238;stroke-miterlimit:10;transform-origin:455.21px 285.41px" class="animable"/><rect id="elj88u1b2ftvl" width="5.4" height="5.4" x="402.67" y="293.98" style="fill:none;stroke:#263238;stroke-miterlimit:10;transform-origin:405.37px 296.68px" class="animable"/><rect id="el0g9n5kaj8biq" width="5.4" height="5.4" x="412.64" y="293.98" style="fill:none;stroke:#263238;stroke-miterlimit:10;transform-origin:415.34px 296.68px" class="animable"/><rect id="elfmdbt78a0iu" width="5.4" height="5.4" x="422.6" y="293.98" style="fill:none;stroke:#263238;stroke-miterlimit:10;transform-origin:425.3px 296.68px" class="animable"/><rect id="el6xfhgzu8vc" width="5.4" height="5.4" x="432.57" y="293.98" style="fill:none;stroke:#263238;stroke-miterlimit:10;transform-origin:435.27px 296.68px" class="animable"/><rect id="elfsdl8zeqc8u" width="5.4" height="5.4" x="442.54" y="293.98" style="fill:none;stroke:#263238;stroke-miterlimit:10;transform-origin:445.24px 296.68px" class="animable"/><rect id="elycat2redpg" width="5.4" height="5.4" x="452.51" y="293.98" style="fill:none;stroke:#263238;stroke-miterlimit:10;transform-origin:455.21px 296.68px" class="animable"/><rect id="el91lfhgogsta" width="5.4" height="5.4" x="402.67" y="305.25" style="fill:none;stroke:#263238;stroke-miterlimit:10;transform-origin:405.37px 307.95px" class="animable"/><rect id="elmi72i3w3dcm" width="5.4" height="5.4" x="412.64" y="305.25" style="fill:none;stroke:#263238;stroke-miterlimit:10;transform-origin:415.34px 307.95px" class="animable"/><rect id="elh2kbugws564" width="5.4" height="5.4" x="422.6" y="305.25" style="fill:none;stroke:#263238;stroke-miterlimit:10;transform-origin:425.3px 307.95px" class="animable"/><rect id="ellhvb8lfctjf" width="5.4" height="5.4" x="432.57" y="305.25" style="fill:none;stroke:#263238;stroke-miterlimit:10;transform-origin:435.27px 307.95px" class="animable"/><rect id="eldnwnj9alcd" width="5.4" height="5.4" x="442.54" y="305.25" style="fill:none;stroke:#263238;stroke-miterlimit:10;transform-origin:445.24px 307.95px" class="animable"/><rect id="eliwq74zpjf8" width="5.4" height="5.4" x="452.51" y="305.25" style="fill:none;stroke:#263238;stroke-miterlimit:10;transform-origin:455.21px 307.95px" class="animable"/><rect id="elk2nmlykkbq" width="36.97" height="4.06" x="411.8" y="271.89" style="fill:none;stroke:#263238;stroke-miterlimit:10;transform-origin:430.285px 273.92px" class="animable"/></g><g id="freepik--Clock--inject-559" class="animable animator-active" style="transform-origin:89.09px 295.5px"><g id="elqy8yzffuyue"><circle cx="89.09" cy="295.5" r="40.18" style="fill:none;stroke:#263238;stroke-miterlimit:10;transform-origin:89.09px 295.5px;transform:rotate(-45deg)" class="animable"/></g><circle cx="89.09" cy="295.5" r="34.97" style="fill:none;stroke:#263238;stroke-miterlimit:10;transform-origin:89.09px 295.5px" id="elr3vjuse93v" class="animable"/><polyline points="78.45 305.09 89.09 295.5 69.22 277.42" style="fill:none;stroke:#263238;stroke-miterlimit:10;transform-origin:79.155px 291.255px" id="elrrkjg229oip" class="animable"/></g><g id="freepik--Plants--inject-559" class="animable" style="transform-origin:46.8906px 412.155px"><path d="M72.23,397.09c-2,.58-6.5-.1-6.51-.1s1.36-2.86,1.46-3c1.27-2,4.86-5,7.38-4.35a3.11,3.11,0,0,1,2,4.16C75.9,395.5,73.9,396.59,72.23,397.09Z" style="fill:#263238;transform-origin:71.2556px 393.437px" id="el7eeen5hp3ky" class="animable"/><path d="M29.84,395.19s-.45-3.13-.45-3.34c0-2.33,1.27-6.86,3.75-7.7a3.1,3.1,0,0,1,4,2.38c.41,1.8-.65,3.81-1.77,5.14C34,393.24,29.84,395.18,29.84,395.19Z" style="fill:#263238;transform-origin:33.31px 389.595px" id="eladiuqfdesnm" class="animable"/><path d="M20.12,386.76c1.37.77,4.61,1.1,5.41,1.17.4.55.82,1.14,1.28,1.81.78,1.17,1.66,2.5,2.51,4,.23.4.46.84.69,1.27-.54-.64-1.29-1.5-1.37-1.58-1.51-1.39-5.24-3.19-7.24-2.06a2.72,2.72,0,0,0-.76,4c.93,1.32,2.87,1.81,4.4,1.86s4.7-1.19,5.37-1.46c.5,1,1,1.93,1.43,3a34.56,34.56,0,0,1,2,5.92l-.12.05c-.43-.65-1.35-2-1.44-2.08-1.34-1.55-4.85-3.75-7-2.85a2.72,2.72,0,0,0-1.19,3.87c.78,1.42,2.66,2.11,4.17,2.33,1.75.25,5.48-.86,5.62-.9a46.69,46.69,0,0,1,.89,6.15c.13,1.53.19,3.08.24,4.64-.28-.46-1.49-2.22-1.59-2.33-1.35-1.55-4.86-3.75-7-2.85a2.73,2.73,0,0,0-1.2,3.87c.79,1.42,2.66,2.12,4.18,2.33,1.7.25,5.29-.8,5.59-.89,0,.71.05,1.42.06,2.13.06,2.32.11,4.64.23,6.93,0,.8.11,1.58.17,2.36-.44-.68-1.29-1.9-1.37-2-1.35-1.55-4.86-3.75-7-2.85a2.73,2.73,0,0,0-1.2,3.87c.79,1.42,2.66,2.11,4.18,2.33s4.55-.59,5.4-.84c.12,1.31.27,2.59.48,3.86.1.54.16,1.1.29,1.61s.23,1,.34,1.55c.28,1,.52,2,.8,3,.14.49.28.95.42,1.43-.35-.76-.93-2-1-2.05-1.1-1.74-4.24-4.44-6.46-3.87a2.71,2.71,0,0,0-1.77,3.64c.56,1.52,2.31,2.5,3.77,2.94,1.62.49,5.2,0,5.64,0,.34,1.16.69,2.29,1,3.34.28.86.55,1.66.82,2.44h1.51c-.33-.9-.68-1.86-1-2.88s-.67-1.94-1-3a20,20,0,0,0,4.78-2.61,30.13,30.13,0,0,0,3,1.7c-.35,1.16-.69,2.29-1,3.36s-.62,2.35-.89,3.41H46.8c.22-1,.46-2,.73-3.07s.51-2,.81-3c.44.09,4,.8,5.61.42s3.3-1.19,4-2.67a2.71,2.71,0,0,0-1.51-3.75c-2.18-.73-5.5,1.75-6.71,3.41-.08.1-.86,1.46-1.24,2.16.18-.63.35-1.26.55-1.92.27-.95.59-1.94.9-2.9.18-.49.35-1,.53-1.49s.4-1,.6-1.48c.31-.72.66-1.45,1-2.18a17.23,17.23,0,0,0,5.22,1.17c1.53-.11,3.45-.68,4.33-2a2.72,2.72,0,0,0-.93-3.94c-2-1.05-5.7.9-7.15,2.35l-.64.8c.36-.71.72-1.41,1.12-2.11,1.11-2,2.3-4,3.49-6,.25-.42.49-.84.74-1.25.79.29,3.81,1.33,5.36,1.22s3.45-.68,4.33-2a2.72,2.72,0,0,0-.92-3.94c-2-1.05-5.71.9-7.16,2.36-.05.05-.37.45-.74.91.63-1.09,1.25-2.19,1.82-3.3a46.69,46.69,0,0,0,2.62-5.87c.28.11,3.79,1.41,5.52,1.28,1.52-.11,3.44-.68,4.32-2a2.72,2.72,0,0,0-.92-3.94c-2-1-5.7.91-7.15,2.36-.11.1-1.28,1.57-1.68,2.11l0-.07a35.13,35.13,0,0,0,1.49-6.12,49,49,0,0,0,.54-5.61c.08-1.75,0-3.34,0-4.76,0-.77-.06-1.47-.1-2.12l0,0s1-2.59,1-2.77c.48-2,.24-6.13-1.72-7.33A2.72,2.72,0,0,0,61.11,380c-.7,1.46-.19,3.39.51,4.75s3.24,3.46,3.87,4c0,.67.05,1.4.06,2.2,0,1.42,0,3-.12,4.74,0,.47-.08,1-.12,1.44-.1-.82-.25-1.95-.27-2.06-.5-2-2.61-5.56-4.91-5.72a2.73,2.73,0,0,0-2.83,2.9c.05,1.62,1.4,3.09,2.65,4s4.57,1.6,5.28,1.74c-.11,1.07-.24,2.16-.45,3.29a35.55,35.55,0,0,1-1.61,6l-.13,0c0-.77,0-2.4,0-2.53-.27-2-2-5.81-4.25-6.22A2.72,2.72,0,0,0,55.62,401c-.13,1.62,1.05,3.24,2.19,4.25,1.32,1.18,5,2.31,5.19,2.35a48.41,48.41,0,0,1-2.65,5.62c-.74,1.35-1.54,2.68-2.36,4,0-.54,0-2.68,0-2.83-.27-2-2-5.81-4.25-6.22a2.72,2.72,0,0,0-3.13,2.57c-.12,1.61,1,3.23,2.2,4.25s4.85,2.25,5.15,2.34c-.37.6-.74,1.21-1.12,1.81-1.23,2-2.47,3.93-3.64,5.91-.4.68-.77,1.37-1.15,2.06,0-.81,0-2.3,0-2.42-.26-2-2-5.81-4.24-6.22a2.72,2.72,0,0,0-3.13,2.56c-.13,1.62,1,3.24,2.19,4.25s4.13,2,5,2.29c-.61,1.15-1.2,2.3-1.73,3.47-.21.51-.46,1-.64,1.51l-.57,1.48c-.35,1-.68,2-1,2.94-.15.49-.29.95-.44,1.42.13-.82.3-2.13.3-2.25,0-2.05-1.08-6-3.25-6.79A2.71,2.71,0,0,0,41,431.43a3.09,3.09,0,0,0-.08.6,10.52,10.52,0,0,0-1.79,5c0,.13.1,1.69.16,2.48-.2-.62-.4-1.24-.6-1.9-.29-.94-.57-1.94-.85-2.92-.12-.5-.25-1-.37-1.54s-.21-1-.32-1.56c-.14-.77-.25-1.57-.36-2.37a17.26,17.26,0,0,0,5-1.91c1.21-.93,2.5-2.46,2.48-4.08a2.71,2.71,0,0,0-2.94-2.78c-2.28.25-4.26,3.9-4.67,5.91,0,.06,0,.5-.1,1-.08-.78-.17-1.57-.23-2.37-.16-2.27-.26-4.58-.37-6.9,0-.49,0-1-.08-1.45.83-.2,3.92-1,5.15-1.94s2.5-2.47,2.49-4.09a2.71,2.71,0,0,0-2.95-2.77c-2.28.25-4.25,3.89-4.66,5.9,0,.08-.07.59-.12,1.17-.07-1.25-.17-2.51-.3-3.75a46.33,46.33,0,0,0-1.06-6.34c.3-.06,3.94-.92,5.31-2s2.5-2.47,2.49-4.09a2.73,2.73,0,0,0-3-2.78c-2.28.26-4.25,3.9-4.66,5.91,0,.14-.2,2-.24,2.69a.17.17,0,0,0,0-.07,35.42,35.42,0,0,0-2.14-5.93,48.92,48.92,0,0,0-2.64-5c-.89-1.5-1.8-2.82-2.61-4l-1.26-1.71h0s-.6-2.71-.66-2.88c-.7-1.93-3.18-5.25-5.48-5.17a2.72,2.72,0,0,0-2.51,3.18C17.29,384.68,18.79,386,20.12,386.76Z" style="fill:#263238;transform-origin:45.4397px 412.155px" id="eldj21d8709m" class="animable"/></g><g id="freepik--kanban-method--inject-559" class="animable" style="transform-origin:254.66px 250.285px"><path d="M474.31,289V429.64H335.72V76.93a6,6,0,0,1,6-6h126.6a6,6,0,0,1,6,6v202.7" style="fill:none;stroke:#263238;stroke-linecap:round;stroke-linejoin:round;transform-origin:405.02px 250.285px" id="el3js6f6kjaar" class="animable"/><path d="M341.72,70.93h126.6a6,6,0,0,1,6,6V92.45a0,0,0,0,1,0,0H335.72a0,0,0,0,1,0,0V76.93A6,6,0,0,1,341.72,70.93Z" style="fill:#263238;stroke:#263238;stroke-linecap:round;stroke-linejoin:round;transform-origin:405.02px 81.69px" id="elbn6erb7wf9e" class="animable"/><path d="M264.53,429.64H185.38V76.93a6,6,0,0,1,6-6H318a6,6,0,0,1,6,6V429.64H273.86" style="fill:none;stroke:#263238;stroke-linecap:round;stroke-linejoin:round;transform-origin:254.69px 250.285px" id="el0fz4t4ygcv5h" class="animable"/><path d="M191.37,70.93H318a6,6,0,0,1,6,6V92.45a0,0,0,0,1,0,0H185.38a0,0,0,0,1,0,0V76.93A6,6,0,0,1,191.37,70.93Z" style="fill:#263238;stroke:#263238;stroke-linecap:round;stroke-linejoin:round;transform-origin:254.69px 81.69px" id="el6io0bhhmnh6" class="animable"/><path d="M35,333.71V76.93a6,6,0,0,1,6-6h126.6a6,6,0,0,1,6,6V429.64H35V342.41" style="fill:none;stroke:#263238;stroke-linecap:round;stroke-linejoin:round;transform-origin:104.3px 250.285px" id="el760r6iv8qdk" class="animable"/><path d="M41,70.93h126.6a6,6,0,0,1,6,6V92.45a0,0,0,0,1,0,0H35a0,0,0,0,1,0,0V76.93A6,6,0,0,1,41,70.93Z" style="fill:#263238;stroke:#263238;stroke-linecap:round;stroke-linejoin:round;transform-origin:104.3px 81.69px" id="elb47r2klx9y" class="animable"/><rect id="el188v619rfvx" width="16.38" height="26.67" x="345.93" y="112.77" style="fill:#0f8;stroke:#263238;stroke-linecap:round;stroke-linejoin:round;transform-origin:354.12px 126.105px" class="animable"/><rect id="el3wefp78sksg" width="16.38" height="26.67" x="370.71" y="112.77" style="fill:#0f8;stroke:#263238;stroke-linecap:round;stroke-linejoin:round;transform-origin:378.9px 126.105px" class="animable"/><rect id="elb44uykye81a" width="16.38" height="26.67" x="345.93" y="151.77" style="fill:#263238;stroke:#263238;stroke-linecap:round;stroke-linejoin:round;transform-origin:354.12px 165.105px" class="animable"/><rect id="elrdrs8x7gd5p" width="16.38" height="26.67" x="370.71" y="151.77" style="fill:#263238;stroke:#263238;stroke-linecap:round;stroke-linejoin:round;transform-origin:378.9px 165.105px" class="animable"/><rect id="el67deu3vmznu" width="16.38" height="26.67" x="396.09" y="151.77" style="fill:#fff;stroke:#263238;stroke-linecap:round;stroke-linejoin:round;transform-origin:404.28px 165.105px" class="animable"/><rect id="elkjghs8mm93" width="16.38" height="26.67" x="199.06" y="112.77" style="fill:#0f8;stroke:#263238;stroke-linecap:round;stroke-linejoin:round;transform-origin:207.25px 126.105px" class="animable"/><rect id="elobmjjj2dpho" width="16.38" height="26.67" x="223.84" y="112.77" style="fill:#0f8;stroke:#263238;stroke-linecap:round;stroke-linejoin:round;transform-origin:232.03px 126.105px" class="animable"/><rect id="ell7i2ypulye" width="16.38" height="26.67" x="199.06" y="151.77" style="fill:#263238;stroke:#263238;stroke-linecap:round;stroke-linejoin:round;transform-origin:207.25px 165.105px" class="animable"/><rect id="el3yuatptzi5k" width="16.38" height="26.67" x="224.44" y="151.77" style="fill:#fff;stroke:#263238;stroke-linecap:round;stroke-linejoin:round;transform-origin:232.63px 165.105px" class="animable"/><rect id="elh8lbqvlhn5m" width="16.38" height="26.67" x="198.92" y="190.78" style="fill:#b2b2b2;stroke:#263238;stroke-linecap:round;stroke-linejoin:round;transform-origin:207.11px 204.115px" class="animable"/><rect id="el47o667t15wc" width="16.38" height="26.67" x="47.48" y="112.77" style="fill:#0f8;stroke:#263238;stroke-linecap:round;stroke-linejoin:round;transform-origin:55.67px 126.105px" class="animable"/><rect id="elwv3iog68l2" width="16.38" height="26.67" x="72.12" y="112.77" style="fill:#0f8;stroke:#263238;stroke-linecap:round;stroke-linejoin:round;transform-origin:80.31px 126.105px" class="animable"/><rect id="elp155ojdim58" width="16.38" height="26.67" x="96.77" y="112.77" style="fill:#0f8;stroke:#263238;stroke-linecap:round;stroke-linejoin:round;transform-origin:104.96px 126.105px" class="animable"/><rect id="elokfy08q9y59" width="16.38" height="26.67" x="121.42" y="112.77" style="fill:#0f8;stroke:#263238;stroke-linecap:round;stroke-linejoin:round;transform-origin:129.61px 126.105px" class="animable"/><rect id="elm8tiolld2q" width="16.38" height="26.67" x="146.06" y="112.77" style="fill:#0f8;stroke:#263238;stroke-linecap:round;stroke-linejoin:round;transform-origin:154.25px 126.105px" class="animable"/><rect id="eli85p9hoi8s" width="16.38" height="26.67" x="47.48" y="151.77" style="fill:#263238;stroke:#263238;stroke-linecap:round;stroke-linejoin:round;transform-origin:55.67px 165.105px" class="animable"/><rect id="el4y60oge5xgq" width="16.38" height="26.67" x="72.12" y="151.77" style="fill:#263238;stroke:#263238;stroke-linecap:round;stroke-linejoin:round;transform-origin:80.31px 165.105px" class="animable"/><rect id="eljg7mr2ba8uq" width="16.38" height="26.67" x="96.77" y="151.77" style="fill:#263238;stroke:#263238;stroke-linecap:round;stroke-linejoin:round;transform-origin:104.96px 165.105px" class="animable"/><rect id="elcxuc4kutgs" width="16.38" height="26.67" x="121.42" y="151.77" style="fill:#fff;stroke:#263238;stroke-linecap:round;stroke-linejoin:round;transform-origin:129.61px 165.105px" class="animable"/><rect id="el13qh8v5s36o" width="16.38" height="26.67" x="146.06" y="151.77" style="fill:#fff;stroke:#263238;stroke-linecap:round;stroke-linejoin:round;transform-origin:154.25px 165.105px" class="animable"/><rect id="el2h9dbywleqp" width="16.38" height="26.67" x="47.48" y="190.78" style="fill:#fff;stroke:#263238;stroke-linecap:round;stroke-linejoin:round;transform-origin:55.67px 204.115px" class="animable"/><rect id="elo9flguujybh" width="16.38" height="26.67" x="72.12" y="190.78" style="fill:#b2b2b2;stroke:#263238;stroke-linecap:round;stroke-linejoin:round;transform-origin:80.31px 204.115px" class="animable"/><rect id="elvte8qcgrjod" width="16.38" height="26.67" x="96.77" y="190.78" style="fill:#b2b2b2;stroke:#263238;stroke-linecap:round;stroke-linejoin:round;transform-origin:104.96px 204.115px" class="animable"/></g><g id="freepik--speech-bubble--inject-559" class="animable" style="transform-origin:429.035px 195.475px"><path d="M446.52,170.07H413.68a8.28,8.28,0,0,0-8.28,8.28v20.14a8.28,8.28,0,0,0,8.28,8.28h3.71l-14.11,14.11,23.93-14.11h19.31a8.28,8.28,0,0,0,8.27-8.28V178.35A8.28,8.28,0,0,0,446.52,170.07Z" style="fill:#fff;stroke:#263238;stroke-linecap:round;stroke-linejoin:round;transform-origin:429.035px 195.475px" id="elaksd7oclcm" class="animable"/><path d="M422.33,189a2.79,2.79,0,1,0-2.79,2.78A2.79,2.79,0,0,0,422.33,189Z" style="fill:#263238;transform-origin:419.54px 188.99px" id="elzudxnwd8dco" class="animable"/><path d="M433.27,189a2.79,2.79,0,1,0-2.79,2.78A2.79,2.79,0,0,0,433.27,189Z" style="fill:#263238;transform-origin:430.48px 188.99px" id="eldkrttitwpz4" class="animable"/><path d="M444.21,189a2.79,2.79,0,1,0-2.79,2.78A2.79,2.79,0,0,0,444.21,189Z" style="fill:#263238;transform-origin:441.42px 188.99px" id="ell9c2ipc3a1c" class="animable"/></g><g id="freepik--character-2--inject-559" class="animable" style="transform-origin:350.49px 324.484px"><path d="M310.16,199.34s-1.86,2.29-2.86,3.43-.86,2,.14,1.86,3.43-2.72,3.43-2.72a6.75,6.75,0,0,0,0,2.43c.29.72,1.43,1.29,2.57,1.72s2.43,1.28,2.86.28-.14-3.86-.14-3.86Z" style="fill:#fff;stroke:#263238;stroke-linecap:round;stroke-linejoin:round;transform-origin:311.538px 203.074px" id="elx808uwwwnxo" class="animable"/><path d="M344.59,220.06s-20-15.15-21.86-17.29a10.19,10.19,0,0,0-5.57-3.29c-1.43-.28-4.72-.71-4.72-.71a56.15,56.15,0,0,0-5-3.14c-1.71-.86-2.57-2.57-2.85-1.43s.57,2.28,2.28,3.28a37.17,37.17,0,0,1,4.43,3.43s4,2.15,3.86,3.86-2.43,2.71-3.29,2.57-3.43-2.14-3.71-.57,3,2.71,4.71,3.14a88.14,88.14,0,0,0,8.86,1.29c.86,0,4,3.14,4,3.14l15,14.29Z" style="fill:#fff;stroke:#263238;stroke-linecap:round;stroke-linejoin:round;transform-origin:324.564px 211.225px" id="eljbqlyym1a2" class="animable"/><path d="M344.16,218.91s-3.86,4.57-4.57,8.15.42,4.28,2,5.28,3.42,2,3.42,2-1.71-2.71,1.72-6.43a75.2,75.2,0,0,1,5.43-5.43S346.73,218.63,344.16,218.91Z" style="fill:#fff;stroke:#263238;stroke-linecap:round;stroke-linejoin:round;transform-origin:345.767px 226.618px" id="elz6rbkybyx9e" class="animable"/><path d="M346.73,227.91s-3.43,3.15-3.14,4.86,2.14,2.86,2.71,3.14,3.29,3.14,4.57,4,4.14.72,4.43,1.29,1.43,3.28,1.43,3.28,6.57-6,8.14-9.43.14-7.14-1.86-9.28-8.14-3.86-8.85-4-2,.71-2,.71Z" style="fill:#fff;stroke:#263238;stroke-linecap:round;stroke-linejoin:round;transform-origin:354.556px 233.117px" id="elb0qxl32lh7" class="animable"/><path d="M354.17,362.27s1.41,6.46,5.24,25.24,1.82,19.78,3.24,33.71-.61,18.17-.61,18.17a92.7,92.7,0,0,1-11.91,3c-4.44.61-12.32,1.61-12.52,3.63s9.29,5.45,17.77,6.67,14.33,3.63,15.74,2.42,2.43-5.65,2.43-7.67-.61-4.65-.61-8.28,2.83-25.44,4-31.5a47.87,47.87,0,0,0-.61-18.77c-1.21-4.44-3.63-11.51-3.63-11.51l1-17.77Z" style="fill:#fff;stroke:#263238;stroke-linecap:round;stroke-linejoin:round;transform-origin:357.598px 407.525px" id="elq1afh1gw9je" class="animable"/><path d="M356,367.48s1.09.49,8.39,0,9-1.58,9-1.58l.38-6.26Z" style="fill:#263238;stroke:#263238;stroke-linecap:round;stroke-linejoin:round;transform-origin:364.885px 363.669px" id="el6y4vs9hzcgi" class="animable"/><path d="M350.33,449.49s-4.44-2.63-4.44-4.65a3.13,3.13,0,0,1,.89-1.95c-4.21.63-9,1.59-9.17,3.16-.2,2,9.29,5.45,17.77,6.67s14.33,3.63,15.74,2.42,2.43-5.65,2.43-7.67a27.76,27.76,0,0,0-.23-2.89c-1.47.81-3.46,2.07-4.82,2.89C366.48,448.68,350.33,449.49,350.33,449.49Z" style="fill:#263238;stroke:#263238;stroke-linecap:round;stroke-linejoin:round;transform-origin:355.578px 449.18px" id="el2uqr3rdm27k" class="animable"/><path d="M331.15,360.65s1.41,21.81,2.83,28.07,20.39,46.23,22.2,49.66l1.82,3.43a38.49,38.49,0,0,1-12.92,6.46c-7.47,2-12.31,2.23-11.71,4s5.86,3.43,14.34,4,20,1.21,21.4.61,2.22-6.46,2.22-9.29-2.22-6.06-3-8.68-7.07-25.24-8.28-31.3-2.22-6.05-5.65-13.32-3.43-4-4.65-9.09,4.45-23,4.45-23Z" style="fill:#fff;stroke:#263238;stroke-linecap:round;stroke-linejoin:round;transform-origin:351.24px 408.886px" id="ela4k465u5fv8" class="animable"/><polygon points="336.32 365.52 351.38 371.55 353.16 367.72 336.32 365.52" style="fill:#263238;stroke:#263238;stroke-linecap:round;stroke-linejoin:round;transform-origin:344.74px 368.535px" id="ellfnharsnx" class="animable"/><path d="M344.07,450.09a3.16,3.16,0,0,1-.43-1.44c-6.64,1.68-10.83,2-10.27,3.66s5.86,3.43,14.34,4,20,1.21,21.4.61,2.22-6.46,2.22-9.29c0,0-16.56,5.25-20.8,5.25S345.28,452.11,344.07,450.09Z" style="fill:#263238;stroke:#263238;stroke-linecap:round;stroke-linejoin:round;transform-origin:352.325px 452.396px" id="el402sk81yr8l" class="animable"/><path d="M332,329s-2.22,16.15-2,23.21a113.47,113.47,0,0,1-.2,11.71s14.53,4.85,23.42,3.84,21.6-6.26,21.6-6.26,1.61-20.59,1.61-21.4,1.4-9.76,1.21-15.75-.2-10.09-.2-10.09-19.78,4.84-26.65,4.24-16.55-1-16.55-1Z" style="fill:#0f8;stroke:#263238;stroke-linecap:round;stroke-linejoin:round;transform-origin:353.729px 341.079px" id="eljxrjl2me5bj" class="animable"/><path d="M355.83,243s-14,12.84-15.75,22.77-9.93,62.49-9.25,66.77c0,0,14.38-2.91,17.81-2.91s16.43,10.61,19,11.64,2.57-1.88,5.31-5.31,2.74-7.19,3.25-10.78,1.2-6.85,1.2-6.85a70.19,70.19,0,0,0,1.88-9.08c.18-2.74-1.54-10.78-1.54-14.21s8.56-22.94,9.25-36.46.34-16.44.34-16.44L385.62,235S360.79,239.06,355.83,243Z" style="fill:#fff;stroke:#263238;stroke-linecap:round;stroke-linejoin:round;transform-origin:359.104px 288.24px" id="elhvarpqqr86" class="animable"/><path d="M360,276.32s3.54,10.14,7.35,16.08" style="fill:#fff;stroke:#263238;stroke-linecap:round;stroke-linejoin:round;transform-origin:363.675px 284.36px" id="el3qywo53sfch" class="animable"/><path d="M365.41,302.67c.42,1.07.85,2.11,1.31,3.09" style="fill:#fff;stroke:#263238;stroke-linecap:round;stroke-linejoin:round;transform-origin:366.065px 304.215px" id="el5m10ynl1cw8" class="animable"/><path d="M360.14,285.19s1.58,7.05,4,14.07" style="fill:#fff;stroke:#263238;stroke-linecap:round;stroke-linejoin:round;transform-origin:362.14px 292.225px" id="elg5ftrond2p7" class="animable"/><path d="M381,202.76s-3.94-9.93-11.3-10.79-14.73,1.72-17.3,7-3.93,8.22-3.93,11,1.88,3.08,1.19,5.65-2.56,2.74-1.71,3.94a5.4,5.4,0,0,0,2.4,1.71s3.25,9.25,5.31,9.76,4.28-1.54,4.28-1.54l3.76,6.33L377.4,232s-1.37-11.47-.51-14.38,5.31-7,5.65-9.25S381,202.76,381,202.76Z" style="fill:#fff;stroke:#263238;stroke-linecap:round;stroke-linejoin:round;transform-origin:365.157px 213.814px" id="elofzhalg4i4" class="animable"/><path d="M351.43,215.36c0,1-.26,1.77-.59,1.77s-.58-.79-.58-1.77.26-1.76.58-1.76S351.43,214.39,351.43,215.36Z" style="fill:#263238;transform-origin:350.845px 215.365px" id="elras6l1d8be" class="animable"/><path d="M349.27,212.42s1.17-1.84,2.18-.33" style="fill:#fff;stroke:#263238;stroke-linecap:round;stroke-linejoin:round;stroke-width:.75px;transform-origin:350.36px 211.957px" id="elmxz7bcny56g" class="animable"/><line id="el4vqlj9shaxm" x1="351.77" x2="353.44" y1="224.75" y2="223.58" style="fill:#fff;stroke:#263238;stroke-linecap:round;stroke-linejoin:round;stroke-width:.75px;transform-origin:352.605px 224.165px" class="animable"/><path d="M378.26,230.84s-15.24,3.94-17.47,6a43.79,43.79,0,0,0-5,6.17s12.67-4.28,16.43-5l7.54-1.37A44,44,0,0,0,378.26,230.84Z" style="fill:#fff;stroke:#263238;stroke-linecap:round;stroke-linejoin:round;transform-origin:367.775px 236.925px" id="elbc46pv66rgi" class="animable"/><path d="M381,202.76s-3.94-9.93-11.3-10.79c-6-.69-11.95.87-15.36,4.32l-.58.14s-4.26-.34-5.79,2.39c-1.2,2.14,1.16,5.11,2.23,6.29-.23,1.4-.14,2.67.66,3.3,2.4,1.88,4.45,1.2,5,3.25s1.2,3.43,2.22,2.74.52-3.93,2.91-4.11,3.6,2.06,3.26,4.46-1.2,3.59-1,4.1,6.68,6,11.3,5.65a4.65,4.65,0,0,0,2.19-.92,22.86,22.86,0,0,1,.21-5.92c.85-2.91,5.31-7,5.65-9.25S381,202.76,381,202.76Z" style="fill:#263238;stroke:#263238;stroke-linecap:round;stroke-linejoin:round;transform-origin:365.139px 208.163px" id="elckuhz1mkim" class="animable"/><path d="M381,202.76a17.63,17.63,0,0,0-9.93,14.72c-.69,10.79,5.3,15.07,4.62,17.3s-3.08,3.59-1.37,5,3.25,1.54,2.74,2.91a19.69,19.69,0,0,0-1,5.14c0,1.2,3.43,3.08,3.08,4.62s-1.88,1.89-.51,2.91,1.2,1.71,3.25,1.37,1.2-3.59,2.74-3.76,2.06,1.19,4.45-.86,1.72-5,2.06-5.82,1.71-.69,2.57-1.89a5.37,5.37,0,0,0,.68-4.62,6.22,6.22,0,0,1-.17-4.28c.51-1.54,1.2-3.59.68-5.13a17.57,17.57,0,0,1-.68-3.26s2.23-3.08,2.23-5.3a20.54,20.54,0,0,0-1.37-7.71c-1-2.23-3.26-4.11-3.43-5.14s-.51-3.42-2.57-4.79S383.05,202.08,381,202.76Z" style="fill:#263238;stroke:#263238;stroke-linecap:round;stroke-linejoin:round;transform-origin:383.729px 229.659px" id="elqr1mgcdhg1s" class="animable"/><polygon points="306.35 245.39 320.73 270.73 330.66 269.88 316.45 245.22 306.35 245.39" style="fill:#263238;stroke:#263238;stroke-linecap:round;stroke-linejoin:round;transform-origin:318.505px 257.975px" id="elbqdqcilpbe" class="animable"/><path d="M325.67,272.74s-.86-5.31-1.6-6.54a8.71,8.71,0,0,1-1.24-3.71c-.37-2-.74-2.22-2-1.23s-.87,3.21-.74,3.82-.62.13-1.73-1-3.83-3.21-3.83-3.21a1.45,1.45,0,0,0-1.11,2.1,21.89,21.89,0,0,1,1.11,3.33s-.62,4.81.12,6.54,3.71,3.46,3.71,3.46l3.08,1.73,8,12.35s-1.73-.13,1.11-3.83,4.57-4.94,4.45-5.31-8.77-7-8.77-7Z" style="fill:#fff;stroke:#263238;stroke-linecap:round;stroke-linejoin:round;transform-origin:324.133px 275.533px" id="elafixnbjoehk" class="animable"/><path d="M333.82,279.41s-4.32.49-5.8,3.46-2.47,3.82-1.73,5.18,2.35,4.32,3.33,4.94a14.94,14.94,0,0,0,1.86,1s-1.61-4.2.74-7a17.71,17.71,0,0,1,5.55-4.32A23.16,23.16,0,0,0,333.82,279.41Z" style="fill:#fff;stroke:#263238;stroke-linecap:round;stroke-linejoin:round;transform-origin:331.904px 286.7px" id="el02g778f1bi65" class="animable"/><path d="M364.94,257.8s.12,3.46,0,6.54-3,7.54-3,7.54a10.6,10.6,0,0,0-2,4.44c-.25,2.22-.5,5.68-.87,6.55s-8.89,19.75-10.61,20.74-3.46.62-6.55-1S331.48,294,331.48,294a5.61,5.61,0,0,1,.74-7c3.21-3.7,5.55-4.32,5.55-4.32l2.23.62s.86-6.92,2-10a31.61,31.61,0,0,0,1.85-8.39,10.26,10.26,0,0,1,1.49-5.68c1.23-1.85,3.08-4.94,5.92-6.05" style="fill:#fff;stroke:#263238;stroke-linecap:round;stroke-linejoin:round;transform-origin:347.789px 278.668px" id="elhorv182qnz" class="animable"/><path d="M340,283.24s.74,8.64,2.09,11.48" style="fill:#fff;stroke:#263238;stroke-linecap:round;stroke-linejoin:round;transform-origin:341.045px 288.98px" id="el5egqiyj3npm" class="animable"/><path d="M340,294.72a23.05,23.05,0,0,0,.94,2.72" style="fill:#fff;stroke:#263238;stroke-linecap:round;stroke-linejoin:round;transform-origin:340.47px 296.08px" id="el0pnyznq8wyi" class="animable"/><path d="M338.51,287.93s.38,2.17,1,4.59" style="fill:#fff;stroke:#263238;stroke-linecap:round;stroke-linejoin:round;transform-origin:339.01px 290.225px" id="el6m5nxip5him" class="animable"/></g><g id="freepik--character-1--inject-559" class="animable" style="transform-origin:210.773px 289.787px"><path d="M233.77,201.62s.28,6.37-.21,8.35-3.95,4.32-3.95,4.32l-.25,4.81s-3.94.86-7.15,1.73-8.51,2.71-10.74,1.23L211.6,209s-3-8.63,3.7-13.69a10.94,10.94,0,0,1,14.93.86A36.42,36.42,0,0,1,233.77,201.62Z" style="fill:#fff;stroke:#263238;stroke-linecap:round;stroke-linejoin:round;transform-origin:222.39px 207.695px" id="elgme45ppdsdh" class="animable"/><path d="M225,182a8,8,0,0,1,6.11.35c3,1.58.18,6.12.18,6.12s3.67,1.75,3.32,4.55-1.22,3.49-1.22,3.49l.35,5.07S232,199,231,201.1s-2.62,4.54-2.8,6.64-2.44,6.64-6.47,7.34-10.13-.53-11-1.92-4.54-11-3.49-18.88,7-12.06,10.83-12.76A14.22,14.22,0,0,1,225,182Z" style="fill:#263238;stroke:#263238;stroke-linecap:round;stroke-linejoin:round;transform-origin:220.843px 198.289px" id="elurho5jijgyk" class="animable"/><path d="M232.2,202.32s-.49,0-.24,3-.5,4.2-1.36,3a6,6,0,0,1-.37-5.3C231,201.1,232.33,200.1,232.2,202.32Z" style="fill:#fff;stroke:#263238;stroke-linecap:round;stroke-linejoin:round;transform-origin:230.995px 204.917px" id="elqgv98x00t9" class="animable"/><path d="M220.22,441.07s1.91,2.59,3.27,4.9,2.45,3.68.41,5.17-3.4,1.64-6.4,1.36-11-3-12.52-4.35-.28-4.22-.28-4.22l1.46-3.72Z" style="fill:#fff;stroke:#263238;stroke-linecap:round;stroke-linejoin:round;transform-origin:214.626px 446.413px" id="elgeccc2j60hq" class="animable"/><path d="M204.27,445.65c3.79,1.65,9.8,4.13,13.78,4.4s6-.42,7-.91a2.15,2.15,0,0,1-1.12,2c-2,1.5-3.4,1.64-6.4,1.36s-11-3-12.52-4.35A2.82,2.82,0,0,1,204.27,445.65Z" style="fill:#fff;stroke:#263238;stroke-linecap:round;stroke-linejoin:round;transform-origin:214.635px 449.133px" id="el16b4smv6svd" class="animable"/><path d="M165.91,439.57c-4.5.41-5.86,4.9-6.95,7.35s-2.86,5.31-2.72,7.63a5.93,5.93,0,0,0,.07.59,12.74,12.74,0,0,1-.61-7c.81-2.72,4-10.91,4-10.91s7.39-3.28,12.51,0c0,0,.5,4-.31,6.28C171.9,443.52,170.4,439.16,165.91,439.57Z" style="fill:#fff;stroke:#263238;stroke-linecap:round;stroke-linejoin:round;transform-origin:163.914px 445.456px" id="el46zxzsyn66c" class="animable"/><path d="M172.21,437.24s.5,4-.31,6.28-2.05,4.36-1.91,5.31,3,4.63,1.09,6-11.44,2.72-13.21,2.31-3-6.26-2.17-9,4-10.91,4-10.91S167.09,434,172.21,437.24Z" style="fill:#fff;stroke:#263238;stroke-linecap:round;stroke-linejoin:round;transform-origin:163.899px 446.506px" id="elefduw0y1hyd" class="animable"/><path d="M155.5,451.52a7.7,7.7,0,0,1,.59-1.31c.4-.54,4.58-12.28,9.44-12.95,3.21-.44,5.58,1.57,6.83,3a11,11,0,0,1-.46,3.26s-1.5-4.36-6-3.95-5.86,4.9-6.95,7.35-2.86,5.31-2.72,7.63a5.93,5.93,0,0,0,.07.59A14.23,14.23,0,0,1,155.5,451.52Z" style="fill:#fff;stroke:#263238;stroke-linecap:round;stroke-linejoin:round;transform-origin:163.93px 446.169px" id="elrxuptz3bmxp" class="animable"/><path d="M238.85,299l-.79,38.17-17.83,97s2,1.26,1.57,3.29-1.25,4.69-1.25,4.69-5.17,3-9.08,2.35a7.24,7.24,0,0,1-5.31-4.23s.15-5.31.47-7,1.56-4.7,1.72-7.2,2-9.23,2-9.23l-.16-82.59h-3.13l-23.93,60.22-7.5,31.6a3.84,3.84,0,0,1-1.26,4.22,8.25,8.25,0,0,0-2.66,3.6l.47,3.44a20.72,20.72,0,0,0-5.78-.94,33.47,33.47,0,0,0-6.73.94l-.62-4.53s-1.88-1.25-1.73-2.35,2.51-4.85,2.66-5.79-1.25-6.41-.78-7.82S171.28,370,171.28,370l10.63-50.83,7-19.24Z" style="fill:#263238;stroke:#263238;stroke-linecap:round;stroke-linejoin:round;transform-origin:198.081px 371.796px" id="elhtuldu3ys2" class="animable"/><path d="M255.07,145.44s-1.77.1-2.07,1.18,1.19,3.16,1.19,3.16S255,146.53,255.07,145.44Z" style="fill:#fff;stroke:#263238;stroke-linecap:round;stroke-linejoin:round;transform-origin:254.015px 147.61px" id="el0yd7dtjpvoyk" class="animable"/><path d="M253,146.62s-1.38,1-1.28,2.18,1.18,2.46,1.77,2.46.7-1.48.7-1.48S253.3,147.61,253,146.62Z" style="fill:#fff;stroke:#263238;stroke-linecap:round;stroke-linejoin:round;transform-origin:252.952px 148.94px" id="elbjtq99himxk" class="animable"/><path d="M251.72,148.8a2.1,2.1,0,0,0-.6,2.37A3.84,3.84,0,0,0,252.7,153l.79-1.78A16.31,16.31,0,0,1,251.72,148.8Z" style="fill:#fff;stroke:#263238;stroke-linecap:round;stroke-linejoin:round;transform-origin:252.233px 150.9px" id="elfk5jfs5vtnd" class="animable"/><g id="el7sro0llsmvv"><rect width="16.38" height="26.67" x="249.73" y="122.36" style="fill:#0f8;stroke:#263238;stroke-linecap:round;stroke-linejoin:round;transform-origin:257.92px 135.695px;transform:rotate(180deg)" class="animable"/></g><path d="M250.93,191.64s2.76-13.62,3.55-17.27.59-10.27.59-10.27a13.73,13.73,0,0,1-2-3.16c-.3-1.09.59-3.46.59-3.46a9.74,9.74,0,0,1-1-3.55c0-1.58,1.49-4.15,1.49-4.15a19.91,19.91,0,0,0,.88-4.34c.1-2,.4-3.46,1.48-3.16a2.08,2.08,0,0,1,1.68,2.37c0,1.48-.1,4.25-.1,4.25l5.63.19s-1.87,13.43-1.78,14.32,3.46,26.55,3.26,29-.49,5.73-.49,5.73-6.62-5.53-9.18-5.63A16.24,16.24,0,0,1,250.93,191.64Z" style="fill:#fff;stroke:#263238;stroke-linecap:round;stroke-linejoin:round;transform-origin:258.069px 170.19px" id="eleg4gbuktsm6" class="animable"/><line id="elr2cfxxjceus" x1="253.69" x2="255.84" y1="157.48" y2="160.26" style="fill:none;stroke:#263238;stroke-linecap:round;stroke-linejoin:round;transform-origin:254.765px 158.87px" class="animable"/><path d="M176.26,277.19a63.75,63.75,0,0,1-3.72,11.62,40.61,40.61,0,0,0-3.11,10.46s2.75,5.32,2.31,7.27-2,5.76-2,6.74-.71,2.75-1.95,2.3-1.95-1.59-2.84-1.86-4.25-1.86-4.61-3.1.09-5,.09-5,1.24-7.55,1.24-7.9a113.56,113.56,0,0,1,.62-14.35c.8-6.12,1.95-11.09,1.95-11.09S169.43,277.1,176.26,277.19Z" style="fill:#fff;stroke:#263238;stroke-linecap:round;stroke-linejoin:round;transform-origin:168.23px 293.966px" id="elu1nms0fksu" class="animable"/><path d="M169.88,312a1.87,1.87,0,0,1-1.69-1.25,8.93,8.93,0,0,1,0-3.54,4.15,4.15,0,0,1-2.13-3.28" style="fill:#fff;stroke:#263238;stroke-linecap:round;stroke-linejoin:round;transform-origin:167.97px 307.965px" id="elcog5nzzznz7" class="animable"/><path d="M165.5,304.82s.39,1.15-1.42,1.76" style="fill:#fff;stroke:#263238;stroke-linecap:round;stroke-linejoin:round;transform-origin:164.808px 305.7px" id="elb0jxsu2q8fk" class="animable"/><path d="M161.93,310.93s.1-1.87.56-2.12a.87.87,0,0,1,1.41.55c.26.91,1,2.33.51,3s-.3.8-1.52.35" style="fill:#fff;stroke:#263238;stroke-linecap:round;stroke-linejoin:round;transform-origin:163.252px 310.795px" id="elrqkvftnnrae" class="animable"/><path d="M164.46,309.31s.91-.6,1.42-.3a3.76,3.76,0,0,1,1.11,3c-.2,1.17-.56,1.92-1.57,1.72" style="fill:#fff;stroke:#263238;stroke-linecap:round;stroke-linejoin:round;transform-origin:165.732px 311.344px" id="elwo1g4n6tc6r" class="animable"/><path d="M166.84,310.12s.36-.17.86.25a4.76,4.76,0,0,1,.65,3.44c-.35.71-.55,1.11-1.41,1.06" style="fill:#fff;stroke:#263238;stroke-linecap:round;stroke-linejoin:round;transform-origin:167.638px 312.48px" id="el49wnlza8tfj" class="animable"/><path d="M229.36,219.1l14.73-12.21,6.68-12.11s5.81-1.11,9.15,1.73,3.46,5.81,2.72,7.29-12.86,29.43-13.11,29.8-6.05,32.14-6.05,32.14-4.33,29.89-3.92,31.51.53,4.31-.95,4.58-32.21.81-34.9,1.21-8.49-1.07-12.81-1.75-2.69-5-2.29-6.74,3.51-37.73,3.51-37.73l-13.35,18.06s-.94,2-6.06.67-6.47-6.87-6.47-7.55,11-19.13,12.67-22.23S185,230.27,189,227.71s20.75-5.66,20.75-5.66Z" style="fill:#0f8;stroke:#263238;stroke-linecap:round;stroke-linejoin:round;transform-origin:214.625px 248.837px" id="elb8vmkfmdo5o" class="animable"/><path d="M221.4,295.38a35.17,35.17,0,0,1-4,2.71" style="fill:none;stroke:#263238;stroke-linecap:round;stroke-linejoin:round;transform-origin:219.4px 296.735px" id="elmouxm4dukcq" class="animable"/><path d="M242.28,268.35s-7.78,15.56-18.79,25.29" style="fill:none;stroke:#263238;stroke-linecap:round;stroke-linejoin:round;transform-origin:232.885px 280.995px" id="elnuo6stt3aud" class="animable"/><path d="M234,287.36s-8.59,10.12-16.25,14.11" style="fill:none;stroke:#263238;stroke-linecap:round;stroke-linejoin:round;transform-origin:225.875px 294.415px" id="el8445tyopxa" class="animable"/><path d="M224.49,281.23s-10.42,11-16.24,14.41" style="fill:none;stroke:#263238;stroke-linecap:round;stroke-linejoin:round;transform-origin:216.37px 288.435px" id="elk2po18ecoln" class="animable"/><path d="M239.08,245c-.71.89-1.49,1.82-2.32,2.79" style="fill:none;stroke:#263238;stroke-linecap:round;stroke-linejoin:round;transform-origin:237.92px 246.395px" id="eldctpm9k1gt8" class="animable"/><path d="M246.88,233.71a63.77,63.77,0,0,1-5.83,8.8" style="fill:none;stroke:#263238;stroke-linecap:round;stroke-linejoin:round;transform-origin:243.965px 238.11px" id="elv23vzags5m" class="animable"/><polygon points="192.12 256.82 194.14 246.59 187.51 263.01 192.12 256.82" style="fill:#263238;stroke:#263238;stroke-linecap:round;stroke-linejoin:round;transform-origin:190.825px 254.8px" id="elusrre3vybh9" class="animable"/><path d="M232.14,217.06a13.62,13.62,0,0,0-2.69-.94c-.95-.14-16.58,2.29-17.66,2.42s-3.37,3.78-3.37,3.78l20.94-3.22Z" style="fill:#0f8;stroke:#263238;stroke-linecap:round;stroke-linejoin:round;transform-origin:220.28px 219.217px" id="elwoj5yho7tnc" class="animable"/><path d="M167.48,265s.27,4.7,1.33,6.12,5.86,2.31,7.27,2.48a29.27,29.27,0,0,0,3.73.09,37.18,37.18,0,0,1-1.78,3.73c-.62,1-1.95,1.24-5.67,1s-8.51-3.9-9-5.14,1.25-4,1.78-5.32A10.65,10.65,0,0,1,167.48,265Z" style="fill:#0f8;stroke:#263238;stroke-linecap:round;stroke-linejoin:round;transform-origin:171.542px 271.753px" id="elojtmmrvc0np" class="animable"/><path d="M249.05,197.66s-.69-2.56,0-3.94,2.27-3.07,3.75-3.07a13.55,13.55,0,0,1,8.89,3c3.75,3,3.95,5,3.35,6.71s-2.17,4.34-2.56,4.34-2.08-7.3-6.62-8.09S249.05,197.66,249.05,197.66Z" style="fill:#0f8;stroke:#263238;stroke-linecap:round;stroke-linejoin:round;transform-origin:257.02px 197.672px" id="elt0hxh9202zq" class="animable"/></g><defs><filter id="active" height="200%"><feMorphology in="SourceAlpha" operator="dilate" radius="2" result="DILATED"/><feFlood flood-color="#32DFEC" flood-opacity="1" result="PINK"/><feComposite in="PINK" in2="DILATED" operator="in" result="OUTLINE"/><feMerge><feMergeNode in="OUTLINE"/><feMergeNode in="SourceGraphic"/></feMerge></filter><filter id="hover" height="200%"><feMorphology in="SourceAlpha" operator="dilate" radius="2" result="DILATED"/><feFlood flood-color="red" flood-opacity=".5" result="PINK"/><feComposite in="PINK" in2="DILATED" operator="in" result="OUTLINE"/><feMerge><feMergeNode in="OUTLINE"/><feMergeNode in="SourceGraphic"/></feMerge><feColorMatrix type="matrix" values="0 0 0 0 0 0 1 0 0 0 0 0 0 0 0 0 0 0 1 0"/></filter></defs></svg>